<svg width="90" height="90" viewBox="0 0 90 90" fill="none" xmlns="http://www.w3.org/2000/svg">
<path fill-rule="evenodd" clip-rule="evenodd" d="M45.5056 20.2247C51.0905 20.2247 55.618 15.6973 55.618 10.1124C55.618 4.52746 51.0905 0 45.5056 0C39.9207 0 35.3933 4.52746 35.3933 10.1124C35.3933 15.6973 39.9207 20.2247 45.5056 20.2247ZM20.2247 27.3034C25.8096 27.3034 30.3371 22.7759 30.3371 17.191C30.3371 11.6061 25.8096 7.07865 20.2247 7.07865C14.6398 7.07865 10.1124 11.6061 10.1124 17.191C10.1124 22.7759 14.6398 27.3034 20.2247 27.3034ZM79.8876 17.191C79.8876 22.7759 75.3602 27.3034 69.7753 27.3034C64.1904 27.3034 59.6629 22.7759 59.6629 17.191C59.6629 11.6061 64.1904 7.07865 69.7753 7.07865C75.3602 7.07865 79.8876 11.6061 79.8876 17.191ZM20.2247 79.8888C25.8096 79.8888 30.337 75.3613 30.337 69.7764C30.337 64.1915 25.8096 59.6641 20.2247 59.6641C14.6398 59.6641 10.1123 64.1915 10.1123 69.7764C10.1123 75.3613 14.6398 79.8888 20.2247 79.8888ZM79.8878 69.7764C79.8878 75.3613 75.3604 79.8888 69.7754 79.8888C64.1905 79.8888 59.6631 75.3613 59.6631 69.7764C59.6631 64.1915 64.1905 59.6641 69.7754 59.6641C75.3604 59.6641 79.8878 64.1915 79.8878 69.7764ZM20.2247 43.4814C20.2247 37.8965 15.6973 33.369 10.1124 33.369C4.52746 33.369 0 37.8965 0 43.4814C0 49.0663 4.52746 53.5938 10.1124 53.5938C15.6973 53.5938 20.2247 49.0663 20.2247 43.4814ZM35.3933 79.8876C35.3933 74.3027 39.9207 69.7753 45.5056 69.7753C51.0905 69.7753 55.618 74.3027 55.618 79.8876C55.618 85.4725 51.0905 90 45.5056 90C39.9207 90 35.3933 85.4725 35.3933 79.8876ZM69.7753 43.4831C69.7753 49.068 74.3027 53.5955 79.8876 53.5955C85.4725 53.5955 90 49.068 90 43.4831C90 37.8982 85.4725 33.3708 79.8876 33.3708C74.3027 33.3708 69.7753 37.8982 69.7753 43.4831Z" fill="#E8E8E8"/>
</svg>
