<svg width="60" height="57" viewBox="0 0 60 57" fill="none" xmlns="http://www.w3.org/2000/svg">
<path fill-rule="evenodd" clip-rule="evenodd" d="M34.0332 0.177056C39.2681 0.873922 43.9898 2.75569 48.235 5.83735C49.6562 6.86883 52.2746 9.32711 53.4138 10.6993C62.1954 21.2764 62.1954 36.1536 53.4138 46.7307C52.1953 48.1985 49.6088 50.6024 48.0331 51.7316C44.921 53.9621 40.5236 56.0292 38.8909 56.0292C38.1054 56.0292 37.5964 55.6448 37.4603 54.9487C37.35 54.3843 37.4311 49.4975 37.5528 49.3808C37.6007 49.3349 38.0248 49.3666 38.4951 49.4513C39.7496 49.6769 41.8843 49.6486 42.9178 49.3925C45.4139 48.7741 46.5782 47.8033 47.885 45.2509C48.6249 43.8062 48.8731 43.453 49.701 42.668C50.2285 42.1679 50.9217 41.5919 51.2414 41.3881C51.884 40.9785 52.2078 40.4817 51.9767 40.2599C51.7244 40.0179 50.8304 39.8981 50.1712 40.018C48.6719 40.2908 47.1309 41.4173 46.0532 43.0284C44.5277 45.309 42.3956 46.3323 39.9146 45.9746C38.7775 45.8107 37.5781 45.4845 37.4646 45.3083C37.4206 45.24 37.2948 44.8528 37.1848 44.4481C36.9017 43.4054 36.5246 42.6402 35.979 42.0014L35.5069 41.4487L36.0152 41.3708C40.1202 40.7416 42.503 39.8972 44.5155 38.3584C47.6877 35.9328 49.2865 31.8736 49.0725 26.7887C48.9633 24.1949 48.1762 22.039 46.7007 20.2928L46.0225 19.4902L46.2199 18.9537C46.8138 17.3387 46.7738 15.1645 46.1092 12.9352L45.8085 11.9262L44.666 11.9427C43.7851 11.9553 43.2924 12.0404 42.5139 12.3141C41.233 12.7644 39.608 13.5427 38.4415 14.2646L37.5328 14.827L36.4068 14.5704C32.4174 13.6615 27.5721 13.6615 23.5826 14.5704L22.4567 14.827L21.5479 14.2646C19.3265 12.89 17.0039 11.999 15.3733 11.8962L14.2807 11.8274L14.0613 12.3933C13.2466 14.4948 13.1309 17.2167 13.7809 18.9844L13.967 19.4902L13.2888 20.2928C11.8166 22.0351 11.0356 24.1778 10.9183 26.7957C10.7176 31.2809 12.0107 35.133 14.528 37.548C16.3898 39.334 19.1599 40.5668 22.5236 41.1063C24.7248 41.4593 24.5453 41.3459 23.9962 42.0361C23.3553 42.8415 23.1874 43.1765 22.8304 44.3618C22.5345 45.344 22.5264 45.5172 22.5639 50.0696C22.5904 53.2824 22.555 54.9029 22.4519 55.2028C22.0152 56.4721 20.5344 56.315 16.8698 54.6105C12.0857 52.3852 7.79783 48.7587 4.85717 44.4505C-0.357403 36.8111 -1.449 27.0486 1.94989 18.448C2.98172 15.8369 4.70021 12.9581 6.57566 10.6993C7.7149 9.32711 10.3333 6.86883 11.7544 5.83735C16.0511 2.71837 20.767 0.853389 26.0909 0.16737C27.8566 -0.0600541 32.2919 -0.0546304 34.0332 0.177056ZM49.3793 41.0397C49.3793 41.3282 48.8832 41.5281 48.6715 41.325C48.5714 41.229 48.5803 41.1292 48.7015 40.9892C48.9494 40.7026 49.3793 40.7345 49.3793 41.0397ZM48.1677 42.0557C48.1677 42.3532 47.9125 42.5981 47.6023 42.5981C47.3545 42.5981 47.2964 42.3911 47.4418 42.0275C47.5586 41.7353 48.1677 41.7589 48.1677 42.0557ZM47.0425 43.4386C47.1529 43.7146 46.7317 44.277 46.4146 44.277C46.2129 44.277 46.1485 44.1894 46.1485 43.9154C46.1485 43.7165 46.2212 43.484 46.31 43.3988C46.5353 43.1827 46.9492 43.2052 47.0425 43.4386ZM45.61 45.2426C45.61 45.6061 45.0575 46.0278 44.7361 45.9095C44.236 45.7255 44.6811 44.9227 45.2831 44.9227C45.5413 44.9227 45.61 44.99 45.61 45.2426ZM43.5492 46.2963C43.6882 46.6438 43.4003 46.9244 42.905 46.9244C42.5718 46.9244 42.4376 46.8614 42.403 46.6886C42.3069 46.21 43.3691 45.8462 43.5492 46.2963ZM38.7117 46.3633C39.1776 46.8103 38.5636 47.3107 37.9413 46.9912C37.4999 46.7647 37.6255 46.2891 38.1396 46.2406C38.3621 46.2197 38.6195 46.2749 38.7117 46.3633ZM41.0062 46.6274C41.4387 47.0424 40.9746 47.4875 40.2831 47.3211C39.7132 47.1839 39.9471 46.4724 40.562 46.4724C40.7175 46.4724 40.9174 46.5422 41.0062 46.6274Z" fill="#FF757E"/>
</svg>
