<svg width="60" height="57" viewBox="0 0 60 57" fill="none" xmlns="http://www.w3.org/2000/svg">
<path fill-rule="evenodd" clip-rule="evenodd" d="M7.36644 0.102312C4.22412 0.55401 1.50715 2.7023 0.467641 5.55726C-0.0306641 6.92572 0.000381115 5.43477 0.000381115 28.0178C0.000381115 50.5917 -0.0303048 49.1108 0.465557 50.4726C1.34417 52.8856 3.37475 54.7835 5.9546 55.6028C7.41984 56.0682 5.82345 56.0392 30.0036 56.0392C54.2072 56.0392 52.6194 56.0682 54.0698 55.5995C56.6575 54.7632 58.676 52.8669 59.5316 50.4685C60.0445 49.0305 60.0133 50.5906 59.9886 27.6486L59.9665 7.01008L59.8115 6.43959C59.4737 5.19604 59.0561 4.32177 58.3723 3.42649C57.3265 2.0573 55.7382 0.960539 54.0062 0.411655C52.6141 -0.0294395 54.0943 -0.00433766 29.9225 0.00284388C11.6401 0.00828037 7.90614 0.0247241 7.36644 0.102312ZM52.5534 4.36929C53.8922 4.79575 54.8903 5.73955 55.346 7.01008L55.5145 7.4799L55.5354 13.4701L55.5564 19.4603H49.4118H43.2673L42.9002 19.0073C39.6726 15.0249 34.66 12.7789 29.4287 12.9712C24.6517 13.1469 20.1868 15.2827 17.3027 18.772L16.7338 19.4603H10.593H4.45221L4.47205 13.4701L4.49188 7.4799L4.68778 6.94297C5.00384 6.07668 5.55805 5.3888 6.34619 4.88448C6.84025 4.56829 7.11348 4.45587 7.7936 4.28895C8.28271 4.16888 9.07616 4.16492 30.1473 4.1778L51.994 4.19116L52.5534 4.36929ZM44.4233 6.64067C43.9814 6.78913 43.4823 7.14673 43.2752 7.46312C42.9255 7.99758 42.9032 8.22343 42.9032 11.2295C42.9032 14.398 42.9224 14.5505 43.3975 15.1381C43.5892 15.3753 43.8004 15.5323 44.1561 15.7018L44.6491 15.9367L47.8185 15.9563C50.9361 15.9756 50.9961 15.9735 51.4909 15.8251C52.6698 15.4717 53.2707 14.3668 52.9015 13.2315C52.7279 12.6979 52.3459 12.2686 51.8045 11.9988C51.5027 11.8484 51.4142 11.8412 49.4428 11.809L47.3947 11.7754L47.3588 9.86257C47.3242 8.02141 47.3166 7.93872 47.1555 7.65689C46.881 7.1764 46.4287 6.81739 45.8898 6.65215C45.3103 6.47449 44.9269 6.47147 44.4233 6.64067ZM32.4233 17.3696C35.7976 18.1067 38.466 19.9493 40.1638 22.7147C40.8131 23.7724 41.3503 25.2477 41.5338 26.4771C41.6364 27.1641 41.6364 28.8714 41.5338 29.5584C40.8946 33.8419 37.4295 37.4491 32.8975 38.5488C31.8136 38.8118 31.0893 38.8762 29.614 38.8408C28.1693 38.8062 27.5217 38.704 26.2667 38.3127C22.1839 37.04 19.0675 33.5393 18.4734 29.5584C18.3708 28.8714 18.3708 27.1641 18.4734 26.4771C19.1145 22.1811 22.5948 18.5702 27.1456 17.4791C28.2413 17.2165 28.6023 17.1852 30.2551 17.2102C31.4892 17.2288 31.9256 17.261 32.4233 17.3696ZM14.5544 23.739C14.4433 24.0011 14.2321 24.8565 14.0765 25.6742C13.9357 26.4141 13.912 26.7627 13.915 28.0513C13.9183 29.3845 13.9409 29.6755 14.1086 30.5347C14.5256 32.6713 15.2616 34.4414 16.4355 36.1308C18.6503 39.3184 21.8582 41.5221 25.7636 42.5386C27.2863 42.935 28.2377 43.0474 30.0395 43.0436C31.4667 43.0406 31.7801 43.0193 32.7102 42.8622C36.1032 42.2887 39.0207 40.8757 41.394 38.6563C45.0943 35.1962 46.7759 30.2738 45.8904 25.4945C45.7905 24.9557 45.6439 24.3214 45.5645 24.085C45.4852 23.8486 45.4199 23.6476 45.4194 23.6384C45.4189 23.6292 47.6987 23.6216 50.4858 23.6216H55.5531L55.5342 36.0886L55.5153 48.5556L55.3246 49.0781C54.8251 50.446 53.7219 51.3903 52.2096 51.7444C51.6395 51.8779 51.4482 51.8789 29.8239 51.8617L8.01322 51.8444L7.45383 51.6663C6.12255 51.2422 5.19097 50.3808 4.68347 49.1046L4.49188 48.6228L4.47284 36.1222L4.45372 23.6216H9.52897C14.3335 23.6216 14.6015 23.6278 14.5544 23.739Z" fill="#FF757E"/>
</svg>
