<svg width="60" height="60" viewBox="0 0 60 60" fill="none" xmlns="http://www.w3.org/2000/svg">
<path fill-rule="evenodd" clip-rule="evenodd" d="M27.2845 0.06988C27.0075 0.104191 26.522 0.164324 26.2055 0.203526C24.1594 0.456647 22.5659 0.825 20.2684 1.57573C19.9307 1.68607 19.5747 1.80871 19.4772 1.84827C17.8335 2.51506 17.6494 2.59649 16.5665 3.13604C15.3083 3.76283 14.6371 4.14514 13.6532 4.79524C12.8623 5.31781 11.8591 6.02114 11.783 6.10631C11.7632 6.12846 11.4395 6.39122 11.0637 6.69016C9.23505 8.14466 7.46889 9.99786 5.75926 12.256C5.54836 12.5346 4.60446 13.9516 4.32385 14.411C3.1589 16.318 2.10652 18.5956 1.49905 20.525C1.37453 20.9206 1.2283 21.3738 1.17406 21.532C0.831586 22.5322 0.325036 25.0236 0.121107 26.711C0.00133908 27.7017 -0.0444101 31.6027 0.0523393 32.5733C0.18225 33.8766 0.342084 34.997 0.503789 35.7382C0.761164 36.9178 1.07227 38.2083 1.17132 38.5075C1.22376 38.6657 1.36921 39.1189 1.49459 39.5145C1.61997 39.9101 1.76887 40.3358 1.82541 40.4605C1.88195 40.5851 1.9282 40.7133 1.9282 40.7452C1.9282 40.8675 2.91073 43.0876 3.15026 43.5066C3.18422 43.566 3.35204 43.8887 3.52316 44.2238C3.69436 44.559 3.90052 44.9312 3.98123 45.051C4.06201 45.1709 4.23537 45.4569 4.3665 45.6865C4.63905 46.1641 5.14618 46.9127 5.94132 48.0113C6.65001 48.9904 7.47709 49.9265 8.82978 51.2802C9.64298 52.094 10.4767 52.8871 10.6823 53.0425C10.8881 53.1979 11.3736 53.5695 11.7613 53.8684C13.9517 55.5565 16.2719 56.8791 18.7964 57.8788C20.4283 58.525 21.5461 58.887 22.7252 59.1512C22.9474 59.201 23.2387 59.2778 23.3726 59.3219C23.5064 59.366 23.713 59.4136 23.8317 59.4278C23.9504 59.442 24.3065 59.5048 24.623 59.5676C26.4585 59.931 27.3263 60.0006 30.0179 60C32.1678 59.9995 33.3501 59.9358 34.2619 59.7714C34.4993 59.7286 34.9849 59.6411 35.3409 59.5769C35.697 59.5127 36.0531 59.4482 36.1322 59.4335C36.5664 59.3531 37.8963 59.0056 38.7937 58.7383C40.2788 58.2958 41.9475 57.6328 43.3614 56.9235C44.1524 56.5267 44.4675 56.3552 45.4115 55.8077C48.514 54.0085 51.654 51.1841 54.048 48.0392C54.6266 47.2793 55.5142 45.962 55.7936 45.4487C55.8689 45.3103 56.1435 44.8159 56.4037 44.3501C57.1262 43.0568 58.0722 40.905 58.4665 39.6584C58.554 39.3814 58.6518 39.0901 58.6836 39.011C58.7155 38.9319 58.7949 38.6567 58.8603 38.3996C58.9256 38.1424 59.0227 37.7864 59.076 37.6084C59.1648 37.3119 59.3652 36.4818 59.4319 36.1338C59.4606 35.9842 59.6366 35.0103 59.7699 34.2641C59.9388 33.3181 60.0018 32.1469 60 29.9838C59.9977 27.3172 59.9269 26.4415 59.5666 24.625C59.5039 24.3085 59.4436 23.9721 59.4327 23.8775C59.41 23.6809 59.2286 22.9263 59.0763 22.3952C59.0195 22.1974 58.9411 21.9061 58.9021 21.7478C58.8629 21.5896 58.7359 21.1688 58.6197 20.8127C57.529 17.4693 55.878 14.3246 53.8614 11.7496C53.5826 11.3935 53.2205 10.9242 53.0569 10.7066C52.6063 10.1076 49.8959 7.43248 49.0801 6.78173C48.4 6.23924 47.4857 5.54979 47.1308 5.31184C47.0423 5.2525 46.7487 5.05469 46.4784 4.87228C45.3391 4.10328 42.3898 2.52859 41.707 2.32467C41.6081 2.2951 41.3593 2.19447 41.1541 2.10104C40.9489 2.0076 40.7596 1.93114 40.7334 1.93114C40.7072 1.93114 40.5837 1.88446 40.459 1.82742C40.3344 1.77037 39.9087 1.62191 39.513 1.49754C39.1174 1.37311 38.6642 1.2281 38.506 1.17515C38.1689 1.06251 36.7268 0.716961 35.7006 0.502898C34.9595 0.348321 33.9198 0.196333 32.7016 0.0644853C31.8818 -0.0242762 28.0124 -0.020392 27.2845 0.06988ZM17.239 10.4207C18.2609 10.7039 19.0639 11.2272 19.6549 11.9951C20.3493 12.8976 20.6507 13.7766 20.6436 14.8785C20.6307 16.8902 19.3972 18.5599 17.4297 19.2291C16.9556 19.3903 15.8179 19.4511 15.221 19.3472C13.4881 19.0454 12.0498 17.6844 11.6039 15.9244C11.4758 15.4191 11.462 14.3954 11.5759 13.857C11.755 13.0106 12.4101 11.9118 13.0569 11.3727C14.2255 10.399 15.8369 10.0322 17.239 10.4207ZM42.1026 22.3648C46.3995 22.9706 48.6629 25.4819 49.2933 30.3434C49.5155 32.0568 49.532 32.7901 49.5219 40.4856L49.5117 48.218L45.6073 48.2367C42.5207 48.2513 41.6963 48.2363 41.6715 48.1647C41.6543 48.1149 41.6278 44.7402 41.6129 40.6654C41.5861 33.3818 41.583 33.245 41.4303 32.5733C41.0097 30.7243 40.3213 29.8509 38.9016 29.3645C38.2888 29.1545 36.6832 29.1731 35.9524 29.3987C35.1697 29.6403 34.7794 29.8776 34.2619 30.426C33.5837 31.1449 33.3232 31.7377 32.9859 33.3285C32.9368 33.56 32.8942 36.278 32.8664 40.9531L32.8233 48.218H28.903H24.9826L24.9644 35.5397L24.9462 22.8614L28.7409 22.8801L32.5356 22.8987V24.6071C32.5356 25.5467 32.5517 26.3143 32.5715 26.3129C32.5913 26.3114 32.737 26.0999 32.8952 25.8428C33.3888 25.041 34.4421 24.0467 35.4129 23.4664C36.5117 22.8094 38.0124 22.3427 39.2613 22.2692C39.912 22.231 41.5423 22.2859 42.1026 22.3648ZM19.9843 35.5224L19.9837 48.1461L16.0632 48.1647L12.1426 48.1833V35.5224V22.8615L16.0638 22.8801L19.9849 22.8987L19.9843 35.5224Z" fill="#FF757E"/>
</svg>
