<svg width="226" height="414" viewBox="0 0 226 414" fill="none" xmlns="http://www.w3.org/2000/svg">
<path d="M401.007 131.72C388.661 61.6064 346.272 22.8933 282.072 7.8382C246.268 -0.764702 210.053 -1.19485 173.426 1.38602C134.742 3.96689 97.2915 12.9999 63.5454 35.3675C16.2185 65.9078 -8.47379 124.408 2.63774 180.326C12.5147 228.933 44.6146 254.742 87.4146 269.367C122.807 281.411 159.434 282.271 196.472 280.12C198.53 279.69 200.588 278.83 203.057 278.4C203.88 278.4 205.938 277.539 205.938 279.26C205.938 280.98 204.703 282.271 202.645 282.271C185.772 293.455 166.841 296.466 147.911 297.756C112.107 300.337 76.7146 297.756 41.3223 293.455C33.9146 292.594 31.4454 293.885 31.4454 302.488C31.857 333.888 31.857 365.719 31.4454 397.12C31.4454 404.002 32.2685 406.583 39.6762 407.873C78.7723 412.605 118.28 415.186 157.788 413.465C201.411 411.745 244.622 405.292 285.364 388.087C334.749 367.01 373.845 334.318 393.188 280.12C410.472 231.514 409.649 182.047 401.007 131.72ZM220.341 196.242C215.403 196.242 210.053 195.812 205.115 195.382C178.365 191.08 166.841 173.014 173.838 145.485C176.718 133.871 183.715 126.988 195.238 125.268C201.822 124.408 207.995 124.408 214.58 125.268C221.988 126.128 226.926 130.43 229.807 137.742C234.745 151.507 234.745 165.701 235.98 176.455C235.568 196.242 235.568 196.242 220.341 196.242Z" fill="#FF757E"/>
</svg>
