<svg width="49" height="49" viewBox="0 0 49 49" fill="none" xmlns="http://www.w3.org/2000/svg">
<path d="M47.3079 15.784C45.8822 7.66509 40.9872 3.18223 33.5734 1.43889C29.4388 0.4427 25.2567 0.39289 21.0271 0.691747C16.5598 0.990605 12.2351 2.03661 8.33817 4.6267C2.8729 8.16318 0.0214545 14.9373 1.3046 21.4125C2.44518 27.041 6.15206 30.0296 11.0946 31.7231C15.1816 33.1178 19.4113 33.2174 23.6884 32.9684C23.9261 32.9185 24.1637 32.8189 24.4488 32.7691C24.5439 32.7691 24.7815 32.6695 24.7815 32.8687C24.7815 33.068 24.6389 33.2174 24.4013 33.2174C22.4528 34.5124 20.2667 34.8611 18.0806 35.0106C13.946 35.3094 9.85894 35.0105 5.77187 34.5125C4.91643 34.4128 4.63129 34.5623 4.63129 35.5585C4.67881 39.1945 4.67881 42.8805 4.63129 46.5166C4.63129 47.3135 4.72634 47.6124 5.58177 47.7618C10.0966 48.3097 14.6589 48.6086 19.2212 48.4093C24.2587 48.2101 29.2488 47.4629 33.9536 45.4706C39.6565 43.0299 44.1713 39.2444 46.4049 32.9684C48.401 27.3399 48.3059 21.6118 47.3079 15.784ZM26.4448 23.2555C25.8745 23.2555 25.2567 23.2057 24.6864 23.1559C21.5974 22.6578 20.2667 20.5658 21.0746 17.378C21.4073 16.0331 22.2152 15.2361 23.5459 15.0369C24.3063 14.9373 25.0191 14.9373 25.7795 15.0369C26.6349 15.1365 27.2052 15.6346 27.5379 16.4814C28.1082 18.0753 28.1082 19.719 28.2507 20.9642C28.2032 23.2555 28.2032 23.2555 26.4448 23.2555Z" stroke="#EDEDED"/>
</svg>
