<svg width="938" height="954" viewBox="0 0 938 954" fill="none" xmlns="http://www.w3.org/2000/svg">
<path d="M924.059 303.529C895.609 141.963 797.932 52.7541 649.992 18.0619C567.488 -1.76214 484.035 -2.75335 399.634 3.19388C310.491 9.14111 224.194 29.9564 146.431 81.499C37.3731 151.875 -19.5266 286.678 6.07828 415.535C28.8381 527.541 102.808 587.013 201.434 620.714C282.99 648.468 367.391 650.45 452.74 645.494C457.482 644.503 462.224 642.521 467.914 641.529C469.81 641.529 474.552 639.547 474.552 643.512C474.552 647.477 471.707 650.45 466.965 650.45C428.084 676.222 384.461 683.16 340.838 686.134C258.333 692.081 176.777 686.134 95.221 676.222C78.1512 674.239 72.4612 677.213 72.4612 697.037C73.4095 769.395 73.4095 842.744 72.4612 915.102C72.4612 930.961 74.3578 936.908 91.4277 939.882C181.519 950.785 272.558 956.732 363.598 952.768C464.12 948.803 563.695 933.935 657.579 894.287C771.378 845.718 861.47 770.386 906.041 645.494C945.871 533.488 943.974 419.5 924.059 303.529ZM507.743 452.209C496.363 452.209 484.035 451.218 472.655 450.227C411.014 440.315 384.461 398.684 400.582 335.247C407.221 308.485 423.342 292.626 449.895 288.661C465.069 286.678 479.294 286.678 494.467 288.661C511.537 290.643 522.917 300.555 529.555 317.406C540.935 349.124 540.935 381.834 543.78 406.614C542.831 452.209 542.831 452.209 507.743 452.209Z" fill="#FF757E"/>
</svg>
